<svg width="512" height="512" viewBox="0 0 512 512" fill="none" xmlns="http://www.w3.org/2000/svg">
<rect width="512" height="512" fill="#1E1E1E"/>
<g clip-path="url(#clip0_0_1)">
<rect width="512" height="512" fill="white"/>
<rect width="666.667" height="666.667" transform="translate(-77 5)" fill="#095B61"/>
<path d="M236.333 147.133C215.4 151 202.467 155.533 188.067 163.933C157.8 181.4 135.933 209.933 126.733 243.8C124.2 253.267 123.667 258.333 123.667 275.933V296.867L127.4 300.6C131 304.333 131.267 304.333 149.933 304.733L168.733 305.267L174.6 298.467C178.6 293.933 182.067 291.267 185.4 290.467C192.333 288.6 200.333 290.6 203.933 295.267C205.533 297.267 207.933 300.067 209.267 301.267C212.467 304.467 219.267 311.133 221.667 313.667C226.467 318.467 234.6 324.733 237.4 325.533C242.6 327.267 247.4 334.867 247.267 341.667C247.133 345 246.467 349 245.533 350.467C243.667 354.2 246.067 356.067 251.667 355C256.2 354.2 260.333 349.933 260.333 346.2C260.333 343.533 262.333 342.733 263.667 345C264.067 345.667 266.6 346.333 269.133 346.333C274.6 346.333 279 342.467 279 337.533C279 335.667 279.4 334.333 280.067 334.6C280.6 334.867 282.6 335.933 284.6 336.867C291 340.067 299 334.467 299 326.733C299 324.733 299.267 324.733 301.4 326.733C305 329.933 310.6 329.533 314.333 325.667C320.867 319.133 320.2 317.933 286.867 277.267L255.933 239.667L250.467 242.733C227 256.333 223.933 257.667 215 257.667C205.267 257.533 199 255 195.533 249.533C193.533 246.467 193.267 243.4 194.067 232.333L194.333 228.333L177.4 227.933L160.333 227.533L165.4 219.533C168.067 215.133 175.533 206.467 182.067 200.333C191.133 191.533 196.333 187.8 206.067 183C224.2 174.067 232.2 172.333 254.333 172.333C270.067 172.467 274.6 172.867 283 175.533C293.533 178.733 310.2 186.6 311.667 189C312.067 189.8 311.267 191.933 309.8 193.8C303.533 201.8 306.2 203.133 332.6 204.333C351.4 205.133 353.8 205 354.467 203C355 201.8 352.467 193.267 349 183.933C338.733 157 338.067 156.2 331.933 163.667C330.067 165.8 327.933 167.667 327.267 167.667C326.6 167.667 322.6 165.533 318.333 163C310.067 158.067 297.667 153.133 285 149.667C277.133 147.533 243.667 145.8 236.333 147.133Z" fill="#FFBE98"/>
<path d="M245.933 206.333C237.933 209.933 204.2 235.667 203 239C201.533 243 203.8 246.067 209.4 247.533C216.333 249.533 221.4 247.8 239.533 237.667C248.067 232.867 256.067 229 257.4 229C259 229 268.467 239.4 283.667 257.933C329.933 314.333 325.533 309.4 329.133 307.133C331.267 305.667 335.533 305 343.667 305C349.933 305 355 305.267 355 305.667C355 306.067 353.133 311.133 351 316.867C339.8 345.933 313.667 369.133 281 379.133C268.467 382.867 239.133 382.6 225.133 378.6C215.267 375.8 197.8 367.533 191.8 363C189.4 361.133 189.4 361 192.867 357C196.467 352.6 197.267 349.667 195 348.333C192.867 347 152.867 343.133 150.467 344.067C147.4 345.267 147.8 347.533 154.733 369C161.933 390.733 163.667 392.6 170.067 385L173.533 381L183.133 387.267C194.333 394.467 208.867 400.867 222.333 404.467C229.8 406.467 236.067 407 254.333 406.867C275 406.867 278.067 406.467 288.733 403.267C295.133 401.267 304.2 397.933 308.733 395.8C343.133 380.333 370.2 348.067 380.333 311C384.467 296.067 385.533 268.067 382.467 253.533C377.267 227.933 378.067 228.6 349 227.667L327.667 226.867L299 215.667C274.733 206.2 268.867 204.467 261 204.067C253.667 203.667 250.467 204.2 245.933 206.333Z" fill="#FFBE98"/>
<path d="M188.733 299.4C184.867 299.933 175 312.333 175 316.6C175 321.267 181.4 326.733 185.8 325.8C188.867 325.267 189.4 325.667 190.2 329C191 333.533 197.667 337.667 201.667 336.333C203.667 335.667 204.333 336.067 204.333 338.2C204.333 341.667 210.867 346.733 214.6 345.933C216.6 345.533 218.333 346.467 220.333 349.267C226.2 357.133 237.667 352.067 237.667 341.533C237.667 336.467 232.867 332.2 228.333 333.4C226.2 333.933 225.133 333.133 223.667 329.533C222.067 325.533 221.133 325 217.133 325C212.6 325 212.333 324.733 212.333 320.333C212.333 314.867 207.667 311 202.333 311.933C199.267 312.6 199 312.2 199 307.667C199 301.133 195.4 298.333 188.733 299.4Z" fill="#FFBE98"/>
<path d="M78.4667 444.6C78.2 445.933 77.5333 455.667 77 466.2C76.3333 479.933 76.4667 485.133 77.5333 484.467C78.3333 483.933 79 479.8 79.1333 475.267C79.2667 470.733 79.6667 463.4 80.2 459.133L81 451.267L88.8667 467.533C93.2667 476.467 97.1333 484.067 97.6667 484.333C98.2 484.6 102.467 477.267 107.133 467.933C116.6 449 115.533 448.467 117.133 472.6C117.667 481.933 118.333 485 119.8 485C121.267 485 121.667 482.867 121.533 475.267C121.267 457.667 119.8 443.267 118.067 442.733C117 442.333 113.133 449 108.2 459.533C103.667 469.133 99.5333 477 99.1333 477C98.7333 477 94.6 469.133 90.0667 459.667C82.0667 442.733 79.8 439.933 78.4667 444.6Z" fill="#FFBE98"/>
<path d="M132.867 444.067C132.6 445 132.467 454.467 132.6 465C133 482.2 133.267 484.333 135.4 484.733C137.533 485.133 137.667 483.4 137.667 463.8C137.667 445.4 137.4 442.333 135.667 442.333C134.467 442.333 133.267 443.133 132.867 444.067Z" fill="#FFBE98"/>
<path d="M169.667 463.667C169.667 489.933 172.067 493 172.6 467.4L173 449.667L187.4 467.4C195.4 477 202.333 485 203.133 485C203.8 485 204.333 475.933 204.333 463.4C204.333 437.8 201.933 435.667 201.4 460.6L201 476.867L187 459.533C179.267 450.067 172.2 442.333 171.4 442.333C170.067 442.333 169.667 447.533 169.667 463.667Z" fill="#FFBE98"/>
<path d="M217.667 463.667V485H232.333C250.2 485 252.2 482.6 234.733 482.067L222.333 481.667L221.933 473.267L221.533 465H230.867C243.533 465 244.467 462.6 232.067 462.067L222.333 461.667V453.667V445.667L234.067 445.267C250.6 444.733 248.733 442.333 231.667 442.333H217.667V463.667Z" fill="#FFBE98"/>
<path d="M264.6 444.6C251.933 450.733 251.933 476.6 264.6 483.133C268.867 485.4 276.067 485.533 281.267 483.533C283.8 482.6 285.133 482.6 285.4 483.533C285.667 484.333 286.733 485 287.8 485C289.267 485 289.667 482.867 289.667 476.333C289.667 469.533 289.267 467.667 287.667 467.667C286.2 467.667 285.667 469.133 285.667 472.867C285.667 479.4 282.2 482.333 274.6 482.333C267.533 482.333 265 480.6 262.467 474.333C258.333 463.933 261.133 449.533 267.8 446.467C272.867 444.2 279.133 444.733 284.067 447.667C287 449.4 288.333 449.8 288.067 448.733C287.267 446.067 278.867 442.333 273.667 442.333C271.133 442.333 267 443.4 264.6 444.6Z" fill="#FFBE98"/>
<path d="M308.467 444.733C302.333 447.8 299 454.467 299 463.4C299 477.133 305.933 485 317.933 485C326.6 485 332.733 479.667 335 470.2C336.867 462.6 335.133 452.867 331.267 448.467C325.533 442.2 316.333 440.6 308.467 444.733ZM325.133 448.067C331.533 453.667 331.933 472.333 325.667 479C321.4 483.533 313.533 483.533 309 479.133C303 473.133 303 454.2 309 448.2C313.267 443.933 320.333 443.933 325.133 448.067Z" fill="#FFBE98"/>
<path d="M353.667 444.6C347.667 447.667 344.333 454.333 344.333 463.4C344.333 472.6 347.133 479 352.6 482.333C357.533 485.267 366.333 485.8 371.667 483.4C376.067 481.4 376.067 479.4 371.533 481C367 482.733 359.533 482.733 356.067 480.867C346.733 475.8 347.933 449.267 357.8 445.8C362.467 444.2 369.933 445.8 373.4 449.133C375 450.6 376.333 451.267 376.333 450.6C376.333 449.933 374.867 448.067 373.133 446.467C368.6 442.2 359.8 441.4 353.667 444.6Z" fill="#FFBE98"/>
<path d="M384.867 444.067C384.6 445 384.467 454.467 384.6 465C385 482.2 385.267 484.333 387.4 484.733C389.533 485.133 389.667 483.4 389.667 463.8C389.667 445.4 389.4 442.333 387.667 442.333C386.467 442.333 385.267 443.133 384.867 444.067Z" fill="#FFBE98"/>
<path d="M408.733 445C397.533 451.8 396.2 470.467 406.333 480.6C410.067 484.333 411.667 485 417.267 485C425.267 485 431.133 481.667 434.067 475.267C437.133 469 437 457.533 433.933 451.667C429.267 443 417.267 439.8 408.733 445ZM425.667 447.667C429.533 451.533 431 456.067 431 463.8C431 471.667 428.2 478.867 424.6 480.867C419.667 483.533 413.133 482.6 409.533 478.867C406.6 475.8 406.333 474.333 406.333 463.4C406.333 451.933 406.467 451.267 410.067 448.2C414.867 444.2 421.933 443.933 425.667 447.667Z" fill="#FFBE98"/>
<path d="M137.667 512.2C137.667 514.333 144.867 528.2 145.267 526.867C145.533 526.067 143.933 522.2 141.667 518.2C139.533 514.2 137.667 511.533 137.667 512.2Z" fill="#FFBE98"/>
<path d="M151.933 512.6C151.667 513.267 151.8 517 152.333 521L153.267 528.333L153.533 519.933C153.667 512.2 153.267 510.2 151.933 512.6Z" fill="#FFBE98"/>
<path d="M181.667 512.733C181.667 513.267 182.733 514.6 184.067 515.8C185.267 516.867 188.333 520.067 190.733 523C193.667 526.6 195 527.533 195 525.933C195 524.733 194.467 523.667 193.8 523.667C193 523.667 190.6 521 188.2 517.667C184.2 512.067 181.667 510.2 181.667 512.733Z" fill="#FFBE98"/>
<path d="M221.933 513.267C220.067 515.133 219.8 524.467 221.533 525.667C222.333 526.067 222.6 524.6 222.067 521.933C221.667 519.4 222.067 516.067 222.867 514.467C224.6 511.267 224.333 510.867 221.933 513.267Z" fill="#FFBE98"/>
<path d="M241.933 513.267C238.6 516.6 240.6 527.667 244.733 527.667C245.4 527.667 244.867 526.733 243.8 525.533C241.4 523.133 241 518.067 243 514.2C244.6 511.267 244.2 511 241.933 513.267Z" fill="#FFBE98"/>
<path d="M261.933 513.267C258.6 516.6 260.6 527.667 264.733 527.667C265.4 527.667 264.867 526.733 263.8 525.533C261.4 523.133 261 518.067 263 514.2C264.6 511.267 264.2 511 261.933 513.267Z" fill="#FFBE98"/>
<path d="M288.6 513.267C285.267 516.6 287.267 527.667 291.4 527.667C292.067 527.667 291.533 526.733 290.467 525.533C288.067 523.133 287.667 518.067 289.667 514.2C291.267 511.267 290.867 511 288.6 513.267Z" fill="#FFBE98"/>
<path d="M315 513.667C311.8 517.533 313.933 527.667 317.933 527.667C318.6 527.667 318.2 526.733 317.133 525.533C314.6 523.133 314.333 515.533 316.6 513.267C317.533 512.333 317.8 511.667 317.4 511.667C317 511.667 315.933 512.6 315 513.667Z" fill="#FFBE98"/>
<path d="M332.333 513.667C329.133 517.533 331.267 527.667 335.267 527.667C335.933 527.667 335.533 526.733 334.467 525.533C331.933 523.133 331.667 515.533 333.933 513.267C334.867 512.333 335.133 511.667 334.733 511.667C334.333 511.667 333.267 512.6 332.333 513.667Z" fill="#FFBE98"/>
<path d="M341.4 513.933C343.667 517.933 343.4 523.133 340.867 525.533C339.8 526.733 339.267 527.667 339.933 527.667C344.467 527.667 346.067 516.067 342.067 512.867C340.067 511.133 340.067 511.267 341.4 513.933Z" fill="#FFBE98"/>
<path d="M351 513C351 513.667 352.467 516.333 354.2 519C356.067 521.667 357.8 524.467 358.067 525.4C358.333 526.333 359.133 526.6 359.667 526.067C360.2 525.533 359.667 524.2 358.6 523.133C357.533 521.933 355.8 518.867 355 516.333C353.533 512.067 351 509.933 351 513Z" fill="#FFBE98"/>
<path d="M366.467 519.267C367.667 529.4 368.333 529.933 368.333 520.6C368.333 516.467 367.667 512.733 367 512.333C366.067 511.8 365.933 514.067 366.467 519.267Z" fill="#FFBE98"/>
</g>
<defs>
<clipPath id="clip0_0_1">
<rect width="512" height="512" fill="white"/>
</clipPath>
</defs>
</svg>
